HIERARCHY
ROOT mixamorig:Hips
{
	OFFSET 0.000000 93.411469 0.000000
	CHANNELS 6 Xposition Yposition Zposition Xrotation Yrotation Zrotation
	JOINT mixamorig:Spine
	{
		OFFSET 0.000000 10.969696 -0.921700
		CHANNELS 3 Xrotation Yrotation Zrotation
		JOINT mixamorig:Spine1
		{
			OFFSET 0.000000 12.798012 -1.075264
			CHANNELS 3 Xrotation Yrotation Zrotation
			JOINT mixamorig:Spine2
			{
				OFFSET 0.000000 14.626259 -1.228870
				CHANNELS 3 Xrotation Yrotation Zrotation
				JOINT mixamorig:Neck
				{
					OFFSET 0.000000 16.454529 -1.382478
					CHANNELS 3 Xrotation Yrotation Zrotation
					JOINT mixamorig:Head
					{
						OFFSET 0.000000 7.061096 2.298900
						CHANNELS 3 Xrotation Yrotation Zrotation
						JOINT mixamorig:HeadTop_End
						{
							OFFSET 0.000000 18.930405 6.163300
							CHANNELS 3 Xrotation Yrotation Zrotation
							End Site
							{
								OFFSET 0.000000 19.908447 0.000000
							}
						}
					}
				}
				JOINT mixamorig:LeftShoulder
				{
					OFFSET 6.916900 13.989166 -1.398025
					CHANNELS 3 Xrotation Yrotation Zrotation
					JOINT mixamorig:LeftArm
					{
						OFFSET 13.811563 -4.518066 -0.031181
						CHANNELS 3 Xrotation Yrotation Zrotation
						JOINT mixamorig:LeftForeArm
						{
							OFFSET 21.026705 0.000000 -0.000001
							CHANNELS 3 Xrotation Yrotation Zrotation
							JOINT mixamorig:LeftHand
							{
								OFFSET 30.839008 0.000000 -0.000001
								CHANNELS 3 Xrotation Yrotation Zrotation
								JOINT mixamorig:LeftHandThumb1
								{
									OFFSET 3.208382 -1.340668 3.573760
									CHANNELS 3 Xrotation Yrotation Zrotation
									JOINT mixamorig:LeftHandThumb2
									{
										OFFSET 3.089905 -1.783951 1.783957
										CHANNELS 3 Xrotation Yrotation Zrotation
										JOINT mixamorig:LeftHandThumb3
										{
											OFFSET 3.728340 -2.152557 2.152560
											CHANNELS 3 Xrotation Yrotation Zrotation
											JOINT mixamorig:LeftHandThumb4
											{
												OFFSET 3.203789 -1.849716 1.849710
												CHANNELS 3 Xrotation Yrotation Zrotation
												End Site
												{
													OFFSET 3.128281 -1.853439 1.971235
												}
											}
										}
									}
								}
								JOINT mixamorig:LeftHandIndex1
								{
									OFFSET 11.035851 0.100845 3.217585
									CHANNELS 3 Xrotation Yrotation Zrotation
									JOINT mixamorig:LeftHandIndex2
									{
										OFFSET 4.427094 0.000000 -0.000000
										CHANNELS 3 Xrotation Yrotation Zrotation
										JOINT mixamorig:LeftHandIndex3
										{
											OFFSET 4.056732 0.000000 -0.000000
											CHANNELS 3 Xrotation Yrotation Zrotation
											JOINT mixamorig:LeftHandIndex4
											{
												OFFSET 3.191704 0.000000 -0.000000
												CHANNELS 3 Xrotation Yrotation Zrotation
												End Site
												{
													OFFSET 3.191597 -0.000992 -0.025581
												}
											}
										}
									}
								}
								JOINT mixamorig:LeftHandMiddle1
								{
									OFFSET 10.687675 0.000000 -0.000000
									CHANNELS 3 Xrotation Yrotation Zrotation
									JOINT mixamorig:LeftHandMiddle2
									{
										OFFSET 4.506920 0.000000 0.000000
										CHANNELS 3 Xrotation Yrotation Zrotation
										JOINT mixamorig:LeftHandMiddle3
										{
											OFFSET 4.342422 0.000000 0.000000
											CHANNELS 3 Xrotation Yrotation Zrotation
											JOINT mixamorig:LeftHandMiddle4
											{
												OFFSET 3.451599 0.000000 0.000000
												CHANNELS 3 Xrotation Yrotation Zrotation
												End Site
												{
													OFFSET 3.451599 0.000031 0.000499
												}
											}
										}
									}
								}
								JOINT mixamorig:LeftHandRing1
								{
									OFFSET 10.107727 -0.115112 -2.675112
									CHANNELS 3 Xrotation Yrotation Zrotation
									JOINT mixamorig:LeftHandRing2
									{
										OFFSET 4.405701 0.000000 0.000000
										CHANNELS 3 Xrotation Yrotation Zrotation
										JOINT mixamorig:LeftHandRing3
										{
											OFFSET 4.156296 0.000000 0.000000
											CHANNELS 3 Xrotation Yrotation Zrotation
											JOINT mixamorig:LeftHandRing4
											{
												OFFSET 3.334007 0.000000 0.000000
												CHANNELS 3 Xrotation Yrotation Zrotation
												End Site
												{
													OFFSET 3.334000 0.000000 0.000000
												}
											}
										}
									}
								}
								JOINT mixamorig:LeftHandPinky1
								{
									OFFSET 8.357552 0.157242 -4.638768
									CHANNELS 3 Xrotation Yrotation Zrotation
									JOINT mixamorig:LeftHandPinky2
									{
										OFFSET 4.531311 0.000000 0.000000
										CHANNELS 3 Xrotation Yrotation Zrotation
										JOINT mixamorig:LeftHandPinky3
										{
											OFFSET 3.827148 0.000000 0.000000
											CHANNELS 3 Xrotation Yrotation Zrotation
											JOINT mixamorig:LeftHandPinky4
											{
												OFFSET 2.714729 0.000000 0.000000
												CHANNELS 3 Xrotation Yrotation Zrotation
												End Site
												{
													OFFSET 2.714699 -0.001343 -0.011623
												}
											}
										}
									}
								}
							}
						}
					}
				}
				JOINT mixamorig:RightShoulder
				{
					OFFSET -6.916900 13.989166 -1.366916
					CHANNELS 3 Xrotation Yrotation Zrotation
					JOINT mixamorig:RightArm
					{
						OFFSET -13.811562 -4.518066 0.031181
						CHANNELS 3 Xrotation Yrotation Zrotation
						JOINT mixamorig:RightForeArm
						{
							OFFSET -21.029896 0.000000 0.000001
							CHANNELS 3 Xrotation Yrotation Zrotation
							JOINT mixamorig:RightHand
							{
								OFFSET -30.839504 0.000000 0.000001
								CHANNELS 3 Xrotation Yrotation Zrotation
								JOINT mixamorig:RightHandThumb1
								{
									OFFSET -3.244499 -1.258942 3.480628
									CHANNELS 3 Xrotation Yrotation Zrotation
									JOINT mixamorig:RightHandThumb2
									{
										OFFSET -3.050079 -1.760956 1.760963
										CHANNELS 3 Xrotation Yrotation Zrotation
										JOINT mixamorig:RightHandThumb3
										{
											OFFSET -3.677361 -2.123123 2.123126
											CHANNELS 3 Xrotation Yrotation Zrotation
											JOINT mixamorig:RightHandThumb4
											{
												OFFSET -3.242935 -1.872314 1.872308
												CHANNELS 3 Xrotation Yrotation Zrotation
												End Site
												{
													OFFSET -3.022049 -1.871368 2.211979
												}
											}
										}
									}
								}
								JOINT mixamorig:RightHandIndex1
								{
									OFFSET -11.161339 0.318161 3.037528
									CHANNELS 3 Xrotation Yrotation Zrotation
									JOINT mixamorig:RightHandIndex2
									{
										OFFSET -4.414124 0.000000 0.000000
										CHANNELS 3 Xrotation Yrotation Zrotation
										JOINT mixamorig:RightHandIndex3
										{
											OFFSET -4.061035 0.000000 0.000000
											CHANNELS 3 Xrotation Yrotation Zrotation
											JOINT mixamorig:RightHandIndex4
											{
												OFFSET -3.294205 0.000000 0.000000
												CHANNELS 3 Xrotation Yrotation Zrotation
												End Site
												{
													OFFSET -3.294205 -0.000015 -0.000200
												}
											}
										}
									}
								}
								JOINT mixamorig:RightHandMiddle1
								{
									OFFSET -10.641754 0.000000 0.000000
									CHANNELS 3 Xrotation Yrotation Zrotation
									JOINT mixamorig:RightHandMiddle2
									{
										OFFSET -4.389687 0.000000 0.000000
										CHANNELS 3 Xrotation Yrotation Zrotation
										JOINT mixamorig:RightHandMiddle3
										{
											OFFSET -4.420738 0.000000 0.000000
											CHANNELS 3 Xrotation Yrotation Zrotation
											JOINT mixamorig:RightHandMiddle4
											{
												OFFSET -3.603416 0.000000 0.000000
												CHANNELS 3 Xrotation Yrotation Zrotation
												End Site
												{
													OFFSET -3.603394 -0.000565 -0.010184
												}
											}
										}
									}
								}
								JOINT mixamorig:RightHandRing1
								{
									OFFSET -9.956535 0.117477 -2.765310
									CHANNELS 3 Xrotation Yrotation Zrotation
									JOINT mixamorig:RightHandRing2
									{
										OFFSET -4.605896 0.000000 0.000000
										CHANNELS 3 Xrotation Yrotation Zrotation
										JOINT mixamorig:RightHandRing3
										{
											OFFSET -4.152107 0.000000 0.000000
											CHANNELS 3 Xrotation Yrotation Zrotation
											JOINT mixamorig:RightHandRing4
											{
												OFFSET -3.477600 0.000000 0.000000
												CHANNELS 3 Xrotation Yrotation Zrotation
												End Site
												{
													OFFSET -3.477600 -0.000046 -0.000498
												}
											}
										}
									}
								}
								JOINT mixamorig:RightHandPinky1
								{
									OFFSET -8.563660 0.262604 -4.726969
									CHANNELS 3 Xrotation Yrotation Zrotation
									JOINT mixamorig:RightHandPinky2
									{
										OFFSET -4.504433 0.000000 0.000000
										CHANNELS 3 Xrotation Yrotation Zrotation
										JOINT mixamorig:RightHandPinky3
										{
											OFFSET -3.676010 0.000000 0.000000
											CHANNELS 3 Xrotation Yrotation Zrotation
											JOINT mixamorig:RightHandPinky4
											{
												OFFSET -2.949142 0.000000 0.000000
												CHANNELS 3 Xrotation Yrotation Zrotation
												End Site
												{
													OFFSET -2.948807 -0.006821 -0.044278
												}
											}
										}
									}
								}
							}
						}
					}
				}
			}
		}
	}
	JOINT mixamorig:LeftUpLeg
	{
		OFFSET 9.285400 -6.101402 0.098400
		CHANNELS 3 Xrotation Yrotation Zrotation
		JOINT mixamorig:LeftLeg
		{
			OFFSET 0.890501 -41.218121 -2.074509
			CHANNELS 3 Xrotation Yrotation Zrotation
			JOINT mixamorig:LeftFoot
			{
				OFFSET -0.890499 -34.639042 -3.437759
				CHANNELS 3 Xrotation Yrotation Zrotation
				JOINT mixamorig:LeftToeBase
				{
					OFFSET -1.884331 -11.023919 16.124651
					CHANNELS 3 Xrotation Yrotation Zrotation
					JOINT mixamorig:LeftToe_End
					{
						OFFSET -0.872758 -0.189663 7.223194
						CHANNELS 3 Xrotation Yrotation Zrotation
						End Site
						{
							OFFSET -0.872758 -0.189663 7.223194
						}
					}
				}
			}
		}
	}
	JOINT mixamorig:RightUpLeg
	{
		OFFSET -9.285400 -6.101402 0.477000
		CHANNELS 3 Xrotation Yrotation Zrotation
		JOINT mixamorig:RightLeg
		{
			OFFSET -0.890505 -41.218170 -2.452988
			CHANNELS 3 Xrotation Yrotation Zrotation
			JOINT mixamorig:RightFoot
			{
				OFFSET 0.890501 -34.639118 -2.464579
				CHANNELS 3 Xrotation Yrotation Zrotation
				JOINT mixamorig:RightToeBase
				{
					OFFSET 1.884341 -11.023602 14.949366
					CHANNELS 3 Xrotation Yrotation Zrotation
					JOINT mixamorig:RightToe_End
					{
						OFFSET 0.872763 -0.189519 7.182385
						CHANNELS 3 Xrotation Yrotation Zrotation
						End Site
						{
							OFFSET 0.872763 -0.189519 7.182386
						}
					}
				}
			}
		}
	}
}
MOTION
Frames: 4
Frame Time: 0.033333
-3.970031 86.418053 8.716411 -182.852879 -141.371638 -170.591624 3.657034 6.025884 4.981108 4.415391 5.096250 4.016456 4.513490 4.804714 4.251241 21.324658 -1.274583 3.230516 -4.391848 -4.235002 -2.022871 0.000002 -0.000000 -0.000001 0.616702 -18.314835 -9.001849 -54.475898 -29.215530 -78.779880 0.000009 -25.756816 0.000001 -93.514456 27.053117 -20.595221 2.333982 -4.852046 -3.963506 13.533773 36.265931 -6.789658 18.237642 69.607735 3.188320 0.000000 -0.000003 -0.000004 2.878046 7.353400 -58.659748 6.385699 5.826707 -95.251967 2.817858 5.005792 -58.730604 -0.000002 0.000001 -0.000001 2.878048 7.353407 -58.659727 6.420574 5.823388 -95.595328 1.278796 3.654838 -38.558812 -0.000000 0.000000 0.000001 3.051706 7.454276 -60.629725 5.249931 5.820226 -84.092886 2.817854 5.005822 -58.730625 0.000000 -0.000000 0.000000 2.878017 7.353388 -58.659686 3.100897 5.166433 -61.922270 2.817846 5.005797 -58.730618 0.000001 -0.000001 0.000002 0.694768 26.746083 8.937757 -69.684623 47.644948 66.968215 -0.000004 8.204448 0.000007 -16.392002 -64.519483 10.755191 2.443856 6.918975 5.466446 7.799182 -26.707424 -3.033898 20.751906 -64.360210 3.645700 0.000001 -0.000000 -0.000000 3.684949 -6.862794 68.588814 4.783599 -4.655471 91.557320 1.569341 -3.488013 48.437427 0.000001 0.000000 0.000004 2.862216 -6.649132 78.228895 5.913056 -4.484999 105.660615 1.531949 -3.454566 47.819848 0.000002 0.000000 -0.000002 3.024894 -6.632724 73.161995 5.513227 -4.577991 100.603543 2.147047 -3.924079 57.357197 -0.000001 0.000001 0.000000 4.732130 -9.256714 56.111261 4.366286 -4.648096 86.414898 1.919880 -3.769251 53.971899 0.000001 0.000001 0.000001 -27.063395 0.888474 0.107984 24.108934 -9.305966 -2.052700 0.074043 -8.744572 -9.935594 8.374324 -0.000006 0.001059 -0.000000 0.000001 -0.000000 -6.216849 -15.639484 -28.999621 41.313670 -11.495159 -10.469195 -26.636066 -1.181951 0.113822 -4.761871 -0.241211 3.313164 0.000001 -0.000001 -0.000001 
-5.519980 86.317200 8.383670 -180.998975 -142.814270 -169.710994 3.669389 7.293536 3.810653 4.391710 6.361072 3.396245 4.493308 6.111703 3.679846 17.513585 -2.386501 6.591790 -5.981787 -7.204257 -1.594610 0.000001 -0.000001 0.000001 -0.137834 -18.203677 -15.002212 -42.323694 -9.228006 -74.932311 0.000019 -61.186904 0.000034 -92.830727 1.574612 -26.135017 2.333975 -4.852030 -3.963497 13.533761 36.266170 -6.789600 18.238318 69.608322 3.187678 -0.000000 0.000000 0.000001 2.878209 7.353488 -58.660110 6.385784 5.826700 -95.252616 2.817883 5.005822 -58.731062 0.000001 -0.000000 0.000000 2.878079 7.353412 -58.660041 6.420656 5.823389 -95.595983 1.278823 3.654862 -38.559068 0.000001 -0.000001 0.000001 3.051720 7.454271 -60.629882 5.249995 5.820231 -84.093412 2.817897 5.005835 -58.731082 -0.000000 0.000001 -0.000002 2.877942 7.353321 -58.659741 3.100908 5.166448 -61.922597 2.817885 5.005822 -58.731075 0.000002 -0.000001 -0.000003 2.208380 28.354793 2.406919 -82.283159 58.138591 84.612274 0.000007 19.800447 -0.000011 6.638513 -49.216953 12.026401 2.472974 6.939440 5.875756 7.830601 -26.984737 -3.051954 16.154267 -60.188911 -1.136893 -0.000002 -0.000001 0.000003 1.239756 -5.608463 59.655815 4.236145 -4.638136 84.807597 1.373402 -3.304221 45.130475 0.000003 0.000003 0.000004 2.238224 -6.312538 68.600740 5.273515 -4.616284 97.613293 1.341270 -3.271998 44.570703 0.000002 0.000002 0.000001 3.279570 -6.753933 64.493057 4.904537 -4.650592 93.048022 1.869997 -3.732555 53.209441 -0.000002 0.000001 0.000000 5.118966 -10.551501 49.819492 3.869383 -4.590206 80.250734 1.674145 -3.578047 50.137967 -0.000002 -0.000003 -0.000002 -28.373082 0.912752 1.026705 23.792380 -9.608811 -1.657944 0.098191 -9.408274 -10.904560 7.492810 -0.000019 0.000698 0.000001 0.000002 -0.000000 -6.286589 -15.093137 -27.793073 42.267560 -10.484562 -10.422307 -27.467539 0.073857 1.880176 -5.843352 -0.454978 4.550079 -0.000001 0.000002 0.000001 
-7.475908 85.999161 8.131908 -179.305361 -147.321525 -169.761907 2.998810 9.099401 3.110181 3.720151 8.139933 2.844840 3.811742 7.943167 3.197701 14.541534 -4.104539 9.723731 -9.198782 -13.793658 -0.153722 0.000001 -0.000002 0.000001 -0.395255 -18.273621 -17.267613 -41.459159 3.463244 -75.794322 -0.000081 -82.138701 -0.000031 -83.272225 -7.349065 -23.731820 2.333974 -4.852032 -3.963487 13.533767 36.265992 -6.789632 18.237802 69.607824 3.188151 0.000000 -0.000002 0.000001 2.878066 7.353427 -58.659809 6.385725 5.826710 -95.252138 2.817876 5.005818 -58.730727 -0.000001 -0.000001 0.000000 2.878028 7.353404 -58.659761 6.420590 5.823407 -95.595492 1.278801 3.654857 -38.558863 0.000000 -0.000003 -0.000000 3.051707 7.454274 -60.629772 5.249962 5.820223 -84.093057 2.817874 5.005814 -58.730727 -0.000000 -0.000002 0.000001 2.877998 7.353382 -58.659686 3.100902 5.166449 -61.922352 2.817861 5.005794 -58.730734 -0.000001 0.000002 -0.000001 3.884122 28.458724 -4.676146 -89.341162 53.010365 94.542413 0.000014 42.357142 -0.000004 10.016783 -33.118409 6.261863 2.568067 6.997742 7.109397 7.925766 -27.822876 -3.105609 7.177877 -46.922501 -10.042683 0.000002 -0.000001 0.000001 -3.197990 1.290445 33.774770 2.669938 -4.212760 64.717217 0.851072 -2.685777 35.159300 0.000003 -0.000001 -0.000002 0.778666 -4.848620 40.094607 3.346800 -4.469403 73.641098 0.833133 -2.660170 34.774682 -0.000008 0.000003 0.000002 3.316940 -7.973983 38.723051 3.108169 -4.392548 70.553320 1.128033 -3.040768 40.699895 0.000003 -0.000002 -0.000001 4.389551 -15.116312 30.741889 2.454714 -4.104474 61.749657 1.018150 -2.908296 38.582058 -0.000003 -0.000004 -0.000004 -31.004097 0.610166 2.337796 24.467744 -9.619089 -1.580189 -0.010943 -13.327160 -11.545210 6.627790 -0.000014 0.000435 -0.000000 -0.000001 -0.000000 -4.103913 -16.943452 -25.086132 40.915121 -8.773343 -10.103571 -27.674509 -0.839601 3.960189 -6.745994 -0.654485 5.462438 -0.000002 0.000000 0.000000 
-9.812705 85.698502 7.919703 -178.601455 -153.869737 -170.817362 2.044150 10.664629 2.689834 2.788795 9.635335 2.326075 2.849317 9.491730 2.742175 14.190770 -5.599106 11.945331 -12.719159 -20.824847 1.500598 0.000001 -0.000000 -0.000002 -0.281781 -18.018811 -16.533774 -47.577595 13.979224 -70.811208 -0.000038 -88.077960 0.000058 -73.839966 -13.900593 -10.608583 2.334026 -4.852087 -3.963557 13.533843 36.265115 -6.789810 18.235232 69.605597 3.190594 0.000002 -0.000003 0.000001 2.877543 7.353091 -58.658382 6.385491 5.826715 -95.249754 2.817721 5.005706 -58.729067 0.000000 -0.000001 0.000000 2.877973 7.353342 -58.658600 6.420354 5.823412 -95.593101 1.278741 3.654784 -38.557951 -0.000001 0.000001 -0.000000 3.051670 7.454244 -60.629294 5.249751 5.820205 -84.091069 2.817721 5.005736 -58.729081 0.000002 0.000001 -0.000000 2.878277 7.353625 -58.659488 3.100796 5.166373 -61.921184 2.817715 5.005711 -58.729074 0.000002 0.000001 -0.000002 4.610938 27.673343 -8.609186 -112.777816 38.819647 115.196017 0.000003 10.477489 -0.000012 8.088182 9.275532 5.326903 2.704559 7.064498 8.671433 8.047781 -28.889576 -3.171516 0.054294 -29.324632 -15.439620 0.000001 -0.000001 0.000001 -0.112320 12.618622 1.481611 1.055962 -2.955009 39.321454 0.356227 -1.788021 22.532494 0.000002 -0.000000 0.000001 0.043484 -2.398911 4.349871 1.270176 -3.198339 43.310827 0.351224 -1.775969 22.372122 -0.000000 -0.000000 -0.000005 0.883364 -10.019579 6.087588 1.203901 -3.126670 42.109718 0.431802 -1.960237 24.843638 0.000000 -0.000001 -0.000000 -1.200787 -20.476272 5.708024 1.005949 -2.892953 38.341028 0.401765 -1.894053 23.950429 0.000001 -0.000000 0.000000 -33.131479 -0.375816 3.274382 24.369796 -9.635973 -1.335597 0.328913 -18.700575 -12.451299 5.833945 -0.000010 0.000218 0.000000 0.000001 0.000000 0.618237 -19.336839 -20.581780 38.129015 -7.656441 -8.602236 -28.047969 -1.394431 4.237452 -7.686095 -0.847856 6.222564 -0.000002 0.000003 -0.000002 
